<svg viewBox="0 0 32 32" xmlns="http://www.w3.org/2000/svg"><path d="m5 5v22h22v-22zm2 2h18v18h-18zm12.164062 3.001953c-1.283 0-1.722656.917203-1.722656 1.533203v1.634766c0 .83.452094 1.623047 1.621094 1.623047 1.962-.002 1.724609-1.486578 1.724609-2.517578h-1.533203v.541015h.904297c0 .805-.37675 1.345703-1.09375 1.345703-.566 0-.892578-.490921-.892578-1.169921v-1.357422c0-.629.590187-.992188.992187-.992188.717 0 .992188.628906.992188.628906l.541016-.365234s-.263204-.904297-1.533204-.904297zm-5.580078 3.089844c-.905 0-2.287031.087109-3.582031.037109v.402344c.78.151 1.105469.075031 1.105469 1.207031v5.53125c0 1.144-.326469 1.056032-1.105469 1.207031v.416016c.377-.013 1.029313-.050781 1.695313-.050781.629 0 1.446828.025781 1.798828.050781v-.416016c-1.006-.138-1.308594-.025031-1.308594-1.207031v-2.33789c.34.025.630031.023437 1.082031.023437.855 1.534 1.671719 2.679703 2.136719 3.220703.842 1.018 2.188625.867797 2.515625.716797v-.376953c-.503-.001-1.007094-.340188-1.371094-.742187-.616-.666001-1.446-1.747797-2.125-2.966797 1.132-.277 1.97461-1.345344 1.97461-2.402344 0-1.584-1.220407-2.3125-2.816407-2.3125zm-.263672.638672c1.182001 0 1.884766.616047 1.884766 1.748047-.001 1.108-.754719 1.847656-2.011719 1.847656-.465 0-.678859-.012109-1.005859-.03711v-3.521484c.327-.038.754812-.037109 1.132812-.037109z"/></svg>